<svg width="1920" height="1080" viewBox="0 0 1920 1080" fill="none" xmlns="http://www.w3.org/2000/svg">
    <g opacity="0.4" clip-path="url(#clip0_4_11)">
        <path fill-rule="evenodd" clip-rule="evenodd" d="M1153.61 58.4894C1166.98 35.1215 1146.36 -11.6463 1138.9 -33.9415C1124.14 -78.0332 1106.99 -120.773 1090.36 -163.741C1073.73 -206.708 1056.97 -249.655 1043.2 -294.247C1034.26 -323.196 1023.25 -356.339 1024.92 -389.375C1028.5 -459.77 1111.58 -401.255 1134.99 -389.381C1194.57 -359.184 1260.09 -319.675 1330.65 -316.849C1372.76 -315.163 1402.04 -336.109 1418.95 -381.439C1424.47 -396.17 1426.77 -415.45 1439.95 -425.318C1454.02 -435.858 1472.48 -435.998 1487.05 -434.829C1540.2 -430.54 1589.55 -405.222 1635.17 -382.295C1684.39 -357.624 1732.03 -329.18 1779.47 -302.193C1799.59 -290.749 1825.59 -287.456 1848.8 -283.587C1879.23 -278.512 1910.03 -274.757 1940.71 -270.604C2008.19 -261.415 2078.01 -252.452 2139.08 -224.864C2177.33 -207.587 2214.15 -180.061 2224.52 -133.138C2229.73 -109.579 2223.87 -82.374 2220.26 -57.2888C2215.92 -26.9723 2211.05 3.35681 2207.58 33.6526C2196.39 131.23 2200.72 235.36 2277.06 284.343C2288.61 291.751 2301.36 296.575 2313.39 303.019C2321.05 307.131 2326.48 313.194 2323.75 324.37C2316.94 352.412 2272.95 377.577 2252.89 391.402C2208.96 421.661 2163.59 448.592 2119.03 477.371C2089.56 496.401 2044.22 519.498 2025.02 552.169C2007.92 581.279 2027.75 620.824 2036.88 645.249C2045.43 668.125 2064.14 704.011 2050.1 732.471C2043.29 746.27 2029.7 753.141 2017.22 757.359C1995.37 764.72 1974.04 766.518 1952.3 776.749C1916.63 793.54 1878.09 822.701 1858.96 861.955C1845.7 889.156 1848.1 913.339 1854.28 938.69C1856.88 949.347 1859.4 957.279 1853.3 968.651C1843.62 986.713 1827.06 1002.2 1812.84 1015.94C1762 1065.11 1705.18 1108.26 1647.85 1146.09C1619.2 1164.99 1589.53 1183.2 1558.8 1195.71C1538.65 1203.94 1512.83 1212.69 1495.2 1202.53C1474.78 1190.79 1458.34 1169.42 1442.35 1151.32C1412.49 1117.5 1384.21 1081.99 1356.29 1046.19C1291.73 963.386 1229.56 878.257 1169.8 790.806C1127.73 729.159 1084.45 666.76 1051.21 597.851C1044.76 584.362 1039.62 569.998 1035.84 554.954C1031.71 539.057 1021.92 527.385 1011.3 516.77C945.377 450.884 850.544 417.864 766.319 382.927C744.943 374.055 723.56 365.196 702.572 355.523C684.529 347.208 661.44 339.832 648.609 323.6C623.318 291.629 679.883 259.89 703.372 247.21C786.07 202.564 875.021 175.702 960.647 145.298C1001.39 130.797 1042.27 116.476 1082.61 99.6034C1103.61 90.8422 1141.88 78.9745 1153.61 58.4894Z" stroke="#3A6247" stroke-width="0.5" />
        <path fill-rule="evenodd" clip-rule="evenodd" d="M1170.41 62.5283C1171.54 30.3302 1159.08 -1.11648 1149.9 -29.2439C1136.69 -69.7303 1121.83 -109.34 1107.78 -149.378C1094.5 -187.238 1081.31 -225.389 1071.75 -265.206C1065.93 -289.486 1058.09 -319.025 1064.45 -346.327C1078.23 -405.51 1156.16 -350.531 1177.25 -340.163C1229.68 -314.374 1287.41 -282.185 1349.48 -281.836C1388.24 -281.619 1416.1 -302.197 1431.89 -343.916C1437.35 -358.349 1439.98 -371.844 1452.47 -382.15C1466.92 -394.079 1485.44 -396.045 1501.28 -395.849C1550.87 -395.241 1597.77 -374.21 1640.57 -354.545C1684.77 -334.23 1730.09 -311.775 1769.12 -285.611C1784.73 -275.153 1807.1 -270.725 1825.98 -266.33C1855.05 -259.577 1884.53 -254.117 1913.79 -247.978C1973.25 -235.515 2033.68 -221.707 2086.78 -193.563C2125.12 -173.246 2160.27 -143.717 2175.94 -98.6885C2191.8 -53.0382 2181.31 -2.43199 2175.55 48.0945C2165.57 135.43 2157.52 243.967 2219.23 299.102C2228.58 307.466 2239.52 312.133 2249.84 318.798C2255.15 322.221 2260.87 326.684 2259.86 334.822C2257.26 355.949 2219.59 375.665 2205.44 384.859C2166.33 410.27 2125.96 432.609 2086.37 456.821C2054.93 476.043 2017.61 496.029 1992.54 525.826C1962.11 561.986 1992.41 617.571 1992.51 655.402C1992.68 720.999 1922.39 717.921 1882.18 726.038C1836.01 735.352 1782.37 769.932 1785.79 827.368C1787.1 849.333 1794.54 866.255 1787.23 889.738C1775.81 926.462 1748.81 960.42 1724.31 989.131C1687.45 1032.28 1645.68 1071.91 1601.18 1104.47C1569.32 1127.79 1518.09 1163.62 1486.64 1140.64C1465.45 1125.19 1447.64 1103.02 1430.2 1082.45C1404.09 1051.64 1379.35 1019.42 1355.08 986.779C1299.01 911.512 1245.69 833.403 1195.87 752.568C1161.88 697.404 1087.1 508.824 1078.98 498.96C1054.75 469.559 1018.4 451.388 985.466 434.856C941.66 412.862 895.87 394.796 850.377 376.293C828.731 367.471 806.634 359.195 785.677 348.932C770.762 341.626 751.425 331.596 744.69 314.232C731.539 280.348 785.012 250.85 807.374 238.22C875.906 199.487 949.086 173.895 1020.19 145.59C1055.09 131.687 1090.27 118.003 1124.49 100.985C1138.3 94.108 1169.72 82.418 1170.41 62.5283Z" stroke="#3A6247" stroke-width="0.5" />
        <path fill-rule="evenodd" clip-rule="evenodd" d="M1194.98 59.5483C1187.65 -10.361 1159.41 -75.4541 1140.54 -141.168C1131.07 -174.156 1121.8 -207.786 1117.55 -243.035C1115.35 -261.367 1112.7 -284.461 1121.16 -303.383C1143.8 -353.998 1214.33 -304.855 1237.6 -293.894C1282.6 -272.712 1332.69 -247.479 1385.74 -249.449C1418.17 -250.662 1444.02 -268.38 1458.12 -303.089C1464.38 -318.488 1468.31 -332.372 1481.44 -343.478C1494.74 -354.729 1511.18 -358.618 1526.3 -359.923C1569.76 -363.691 1612.27 -348.449 1650.14 -333.529C1694.54 -315.983 1737.14 -294.61 1777.6 -269.581C1813.05 -247.678 1856.44 -239.936 1896.61 -228.182C1949.82 -212.605 2003.05 -195.115 2049.99 -166.156C2087.05 -143.278 2119.73 -112.125 2137.75 -68.9003C2156.03 -24.9204 2154.03 24.0288 2148.37 74.8382C2139.82 151.647 2125.83 253.126 2171.32 310.313C2177.93 318.637 2185.71 323.603 2194.21 329.276C2198.34 332.03 2203.83 335.306 2202.83 341.958C2200.41 357.973 2166.84 372.419 2156.45 378.211C2123.3 396.7 2089.47 413.103 2056.11 430.977C2024.97 447.663 1991.76 464.615 1964.16 489.281C1920.22 528.571 1954.9 586.244 1926.81 631.606C1909.36 659.765 1874.83 667.303 1848.68 671.214C1816.49 676.007 1778.05 669.224 1748.56 694.788C1726.6 713.828 1731.54 735.093 1731.08 758.855C1730.3 799.116 1707.53 841.212 1685.34 875.586C1655.38 922.04 1618.12 965.245 1577.01 1000.15C1558.38 1015.97 1537.68 1031.67 1515.88 1039.75C1495.46 1047.33 1481.91 1044.49 1467.52 1032.27C1423.48 994.83 1388.36 940.851 1354.17 891.019C1311.21 828.404 1270.78 763.299 1234.38 695.266C1209.55 648.873 1184.66 600.577 1169.89 547.703C1166.04 533.919 1162.41 519.26 1162.54 504.075C1162.62 492.645 1164.64 484.338 1159.22 474.673C1143.15 446.031 1106.9 430.27 1079.8 416.708C1036.47 395.013 991.024 377.441 946.005 359.264C919.722 348.679 867.734 333.027 863.107 296.235C859.118 264.468 901.131 238.363 922.718 224.807C977.318 190.531 1035.92 166.589 1092.84 139.967C1118.92 127.767 1145.66 115.732 1170.57 99.8185C1176.93 95.765 1186.19 90.874 1191.08 84.3206C1196.66 76.7995 1195.86 68.1545 1194.98 59.5483Z" stroke="#3A6247" stroke-width="0.5" />
        <path fill-rule="evenodd" clip-rule="evenodd" d="M1191.84 72.2824C1183.95 9.61867 1164.79 -49.1494 1152.85 -110.409C1147.5 -137.876 1142.51 -166.332 1143.27 -195.647C1143.68 -211.413 1145.48 -230.519 1155.9 -244.417C1185.8 -284.305 1244.64 -245.331 1270.76 -233.659C1309.55 -216.272 1353.82 -195.777 1399.57 -200.253C1429.55 -203.182 1450.42 -220.959 1463.09 -252.068C1476.69 -285.44 1499.17 -302.42 1530.78 -307.223C1570.41 -313.229 1609.77 -302.338 1644.91 -290.476C1687.22 -276.148 1727.61 -257.366 1765.57 -234.358C1802.48 -211.979 1843.13 -198.746 1883.16 -182.325C1936.22 -160.547 1988.95 -134.541 2029.93 -93.1021C2065.61 -57.0212 2089.05 -9.22479 2094.78 47.1385C2100.77 105.978 2085.38 166.918 2083.18 226.937C2081.81 264.373 2081.08 314.52 2103.04 341.999C2110.36 351.164 2130.52 356.065 2112.39 370.023C2102.02 378.007 2088.62 382.54 2077.29 387.423C2058.98 395.316 2040.54 402.632 2022.17 410.234C1983 426.442 1941.88 442.357 1905.23 467.142C1859.06 498.338 1871.23 549.762 1842.03 591.513C1826.31 613.983 1801.86 625.067 1778.95 631.652C1764.13 635.923 1749.17 638.406 1734.32 640.208C1718.81 642.093 1702.43 640.905 1686.94 645.96C1664.87 653.143 1660.51 674.162 1651.9 694.898C1636.78 731.344 1617.88 766.333 1595.63 799.072C1568.37 839.204 1536.29 878.158 1499.13 907.508C1484.67 918.937 1468.12 930.351 1451.27 933.905C1434.42 937.459 1423.33 930.174 1412.33 919.864C1379.67 889.319 1353.88 847.083 1329.32 806.993C1298.59 756.811 1270.39 704.265 1246.35 649.101C1229.75 611.021 1214.05 571.165 1206.58 528.18C1204.42 515.673 1202.94 502.763 1203.35 489.537C1203.63 480.465 1206.8 470.372 1204.41 462.06C1196.92 436.093 1160.23 421.472 1139.89 411.04C1099.3 390.217 1055.24 376.826 1014.53 356.324C992.309 345.138 956.857 328.746 953.882 297.419C951.078 267.966 983.555 242.782 1004.07 227.748C1044.4 198.183 1088.24 176.386 1130.53 151.659C1147.92 141.48 1166.55 131.077 1182.14 116.997C1196.02 104.444 1193.86 88.3464 1191.84 72.2824Z" stroke="#3A6247" stroke-width="0.5" />
        <path fill-rule="evenodd" clip-rule="evenodd" d="M1200.29 79.0695C1196.11 25.5716 1184.04 -26.7275 1180.03 -80.9591C1177.69 -112.714 1173.12 -166.464 1203.71 -191.755C1237.3 -219.559 1283.75 -194.138 1311.93 -181.737C1345.47 -166.978 1385.23 -150.295 1425.01 -156.848C1437.59 -158.917 1450.21 -163.973 1460.32 -174.373C1471.15 -185.502 1474.11 -198.978 1481.17 -212.29C1495.98 -240.216 1522.14 -254.435 1548.68 -259.268C1586.2 -266.107 1623.54 -258.074 1657.37 -247.991C1695.67 -236.533 1732.22 -220.733 1766.48 -200.818C1799.23 -181.809 1832.23 -164.017 1865.69 -146.142C1909.46 -122.792 1951.78 -95.5456 1985.49 -57.743C2018.69 -20.4946 2041.28 26.5318 2048.91 80.9919C2056.34 134.13 2049.76 190.074 2040.3 245.475C2034.93 276.918 2028.77 324.981 2044.1 351.233C2050.91 362.911 2061.13 368.252 2041.56 377.19C2016.91 388.445 1989.7 393.203 1964.49 400.456C1928.12 410.928 1890.91 421.533 1855.63 438.559C1833.1 449.43 1817.64 463.661 1805.11 487.303C1795.58 505.319 1788.44 524.472 1776.73 541.326C1749.24 580.889 1705.77 593.867 1666.57 606.684C1641.35 614.925 1619.8 619.881 1597.87 639.621C1571.94 662.947 1549.99 691.918 1526.54 718.127C1500.78 746.906 1473.19 776.391 1441.56 796.6C1413.4 814.594 1390.53 816.775 1370.24 795.901C1338.58 763.351 1316.56 715.344 1297.11 671.456C1277.3 626.797 1259.88 579.367 1251.34 528.721C1246.73 501.374 1248.85 473.591 1246.75 445.852C1244.08 411.007 1199.91 398.236 1175.69 387.133C1135.49 368.703 1000.17 325.953 1060.43 247.139C1085.59 214.242 1122.75 191.9 1154.19 168.183C1167.23 158.336 1184.24 147.303 1194.11 133.099C1204.85 117.63 1201.54 95.1678 1200.29 79.0695Z" stroke="#3A6247" stroke-width="0.5" />
        <path fill-rule="evenodd" clip-rule="evenodd" d="M1212.89 90.5676C1212.88 44.2094 1207.79 -2.49974 1212.24 -50.0038C1215.1 -80.7793 1222.88 -119.621 1252.19 -137.078C1285.27 -156.777 1325.11 -142.899 1353.65 -131.426C1383.05 -119.603 1417.38 -104.145 1452.33 -113.404C1463.46 -116.358 1474.76 -122.473 1482.38 -133.184C1489.71 -143.456 1493.03 -156.027 1500.4 -166.535C1516.94 -190.133 1541.19 -203.478 1565.77 -209.13C1638.5 -225.856 1714.63 -195.113 1772.44 -163.416C1801.37 -147.547 1829.07 -127.631 1856.62 -108.938C1892.36 -84.6805 1926.32 -57.1974 1953.62 -22.3068C2011.68 51.865 2023.23 148.99 2009.87 253.916C2005.67 286.942 1997.59 320.644 2002.73 352.082C2005.37 368.307 1998.82 375.106 1983.79 379.879C1960.3 387.335 1935.77 389.26 1912.2 393.204C1878.67 398.81 1844.49 404.415 1811.45 415.229C1788.68 422.685 1770.25 431.889 1753.91 453.304C1742.26 468.572 1733.05 485.664 1722.19 501.523C1701.55 531.646 1675.14 558.131 1645.25 575.78C1621.53 589.752 1596.67 600.548 1571.84 610.198C1539.54 622.778 1509.93 637.397 1479.63 656.945C1439.5 682.805 1373.78 735.287 1339.56 691.729C1301.82 643.679 1284.76 566.909 1281.34 500.058C1280.19 477.612 1283.07 452.552 1275.75 432.278C1264.77 401.955 1242.7 390.113 1217.22 375.565C1179.08 353.775 1090.4 316.175 1129.49 246.398C1144.98 218.754 1169.74 198.43 1189.66 174.728C1212.01 148.203 1212.93 122.178 1212.89 90.5676Z" stroke="#3A6247" stroke-width="0.5" />
        <path fill-rule="evenodd" clip-rule="evenodd" d="M1225.43 102.55C1231.71 45.7955 1230.11 -54.3133 1293.12 -85.2196C1326.41 -101.558 1363.88 -93.3537 1393.9 -84.0399C1418.08 -76.569 1444.92 -63.5527 1472.89 -74.7158C1493.45 -82.9254 1500.81 -107.842 1516.23 -124.05C1535.35 -144.141 1559.34 -155.784 1583.56 -160.979C1651.24 -175.499 1720.26 -152.225 1775.33 -124.059C1832.52 -94.7997 1886.48 -46.8727 1924.73 7.63835C1972.41 75.6161 1988.01 161.404 1980.03 254.105C1978.56 271.215 1976.3 288.348 1974.48 305.476C1973.27 316.97 1974.19 329.295 1971.84 340.768C1967.91 359.894 1954.04 369.402 1937.91 374.067C1914.71 380.792 1890.69 381.268 1867.62 383.064C1836.07 385.533 1804.17 387.434 1772.64 393.49C1751.45 397.577 1729.05 402.227 1711.76 420.511C1699.96 432.98 1690.4 447.878 1681.88 462.919C1663.62 495.172 1647.25 520.33 1617.93 542.629C1569.75 579.211 1513.44 604.646 1459.59 621.778C1417.32 635.225 1350.91 655.681 1324.09 615.036C1300.02 578.602 1303.65 526.605 1300.28 480.947C1298.65 458.75 1294.88 437.168 1287.11 417.583C1277.32 392.893 1263.79 377.118 1243.75 362.481C1210.02 337.844 1156.32 305.615 1175.44 246.828C1182.49 225.133 1196.4 206.455 1205.55 185.631C1217.68 158.117 1222.26 131.179 1225.43 102.55Z" stroke="#3A6247" stroke-width="0.5" />
        <path fill-rule="evenodd" clip-rule="evenodd" d="M1245.51 114.806C1259.95 57.0733 1277.39 -16.1218 1337.08 -40.4961C1366 -52.3048 1396.23 -50.8219 1423.97 -46.755C1443.83 -43.8466 1470.61 -30.9619 1491.87 -44.9092C1507.5 -55.1815 1520.03 -74.5492 1535.56 -86.2533C1556.91 -102.347 1580.76 -112.005 1604.78 -116.487C1667.37 -128.172 1729.96 -110.61 1782.05 -85.9427C1895.22 -32.3334 1965.83 99.384 1958.75 245.25C1956.64 288.732 1958.31 337.261 1910.61 355.508C1858.56 375.4 1802.55 366.545 1750.85 372.222C1731.1 374.384 1706.35 376.406 1688 390.323C1676.96 398.687 1668.64 412.359 1661.41 424.394C1642.98 455.035 1624.78 481.661 1597.82 504.643C1556.16 540.163 1507.05 566.799 1458.88 584.045C1416.87 599.081 1361.21 613.143 1337.11 571.04C1318.65 538.72 1320.95 493.963 1314.02 456.013C1306.32 413.759 1287.56 377.489 1260.24 349.325C1233.64 321.952 1202.25 295.761 1207.73 247.567C1209.61 231.035 1213.48 210.456 1219.77 194.58C1230.22 168.446 1238.83 141.766 1245.51 114.806Z" stroke="#3A6247" stroke-width="0.5" />
        <path fill-rule="evenodd" clip-rule="evenodd" d="M1267.97 128.712C1290.36 74.7929 1319.82 22.0814 1373.1 0.0668926C1397.96 -10.2005 1423.5 -12.97 1448.53 -14.3925C1466.94 -15.44 1485 -14.8692 1503.25 -23.4467C1520.16 -31.3851 1536.08 -42.7349 1552.87 -51.2038C1575.06 -62.4584 1598.16 -69.9599 1621.3 -73.4203C1679.27 -82.0347 1736.17 -68.9383 1785.43 -47.4287C1809.28 -37.0261 1834.34 -24.3411 1852.7 -4.77495C1870.44 14.115 1885.74 36.6619 1898.56 60.066C1925.83 109.794 1940.65 168.177 1939.72 230.697C1939.09 273.577 1930.65 310.779 1888.18 330.242C1840.31 352.179 1787.04 348.841 1738.96 353.303C1705.99 356.363 1670.37 357.47 1645.72 390.079C1626.1 416.024 1607.96 440.924 1583.69 462.16C1547.77 493.413 1507.66 517.37 1465.74 532.609C1427.46 546.442 1385.5 552.734 1361.26 519.659C1342.06 493.434 1336.81 456.383 1324.84 425.167C1311.51 390.333 1290.43 363.23 1266.61 337.491C1245.22 314.327 1227.89 287.659 1226.39 251.333C1226.08 243.908 1225.88 235.899 1226.73 228.281C1227.82 218.561 1232.53 211.013 1236.88 201.923C1248.41 177.948 1257.83 153.114 1267.97 128.712Z" stroke="#3A6247" stroke-width="0.5" />
        <path fill-rule="evenodd" clip-rule="evenodd" d="M1295.74 138.715C1323.76 91.4674 1359.14 51.9322 1406.38 29.709C1426.57 20.1982 1447.3 14.716 1467.84 7.16897C1484.39 1.07758 1499.92 -4.49273 1516.75 -7.67975C1556.63 -15.1986 1595.4 -32.3122 1635.51 -36.3653C1689.08 -41.8164 1741.13 -31.9304 1787.64 -13.2094C1810.35 -4.07038 1832.65 7.37927 1851.99 22.9189C1868.6 36.2646 1880.31 56.3234 1890.62 75.8863C1910.84 114.217 1925.25 160.467 1925.08 208.397C1924.69 314.068 1801.58 320.299 1735.99 327.68C1705.81 331.078 1663.04 330.511 1636.56 356.37C1617.63 374.841 1600.92 395.08 1580.6 411.844C1526.04 456.864 1443.54 499.285 1390.69 456.944C1368.07 438.831 1354.43 410.234 1337.28 386.444C1319.63 361.945 1298.46 341.775 1277.45 320.92C1257.82 301.433 1244.39 282.047 1242.98 249.945C1242.29 234.612 1250.68 221.545 1257.99 207.415C1270 184.209 1282.48 161.103 1295.74 138.715Z" stroke="#3A6247" stroke-width="0.5" />
        <path fill-rule="evenodd" clip-rule="evenodd" d="M1322.12 146.569C1372.91 80.1508 1452.85 21.7209 1527.93 9.35252C1616.25 -5.19767 1705.1 -9.12787 1783.65 20.2101C1820.06 33.8112 1858.04 52.0321 1879.01 88.0616C1894.98 115.473 1910.89 151.875 1907.42 188.206C1898.92 277.076 1795.08 292.026 1735.55 301.183C1703.5 306.112 1665.72 307.153 1634.41 323.256C1616.25 332.59 1600.02 349.413 1582.87 361.268C1530.88 397.191 1469.26 414.845 1417.04 394.321C1392.9 384.829 1372.84 367.878 1352.64 351.952C1331.95 335.652 1310.12 320.704 1290.33 303.174C1274.53 289.178 1257.02 270.784 1263.82 243.768C1272.39 209.721 1301.39 173.694 1322.12 146.569Z" stroke="#3A6247" stroke-width="0.5" />
        <path fill-rule="evenodd" clip-rule="evenodd" d="M1352.92 149.045C1405.52 89.2552 1472.33 39.8457 1543.95 27.2721C1581.93 20.6058 1620.21 22.9356 1657.2 24.7598C1699.13 26.8304 1740.37 33.436 1778.59 46.9271C1826.19 63.7207 1899.99 96.6169 1888.04 169.169C1876.18 241.182 1789.56 261.169 1738.99 271.862C1706.58 278.703 1673.57 283.109 1641.08 292.279C1623.47 297.249 1607.38 305.443 1590.33 313.352C1543.17 335.301 1489.42 343.24 1442.8 337.177C1397.62 331.304 1348.64 312.051 1313.02 284.935C1297.65 273.244 1289.95 259.187 1296.79 235.739C1306.33 203.156 1331.19 173.742 1352.92 149.045Z" stroke="#3A6247" stroke-width="0.5" />
        <path fill-rule="evenodd" clip-rule="evenodd" d="M1384.98 142.542C1432.79 90.9301 1493.28 53.4577 1556.41 42.2745C1627.18 29.7364 1701.41 42.8386 1764.39 63.9972C1797.86 75.2487 1872.27 96.3667 1860.7 151.692C1849.13 207.017 1778.44 227.459 1738.42 238.076C1689.87 250.914 1639.52 261.311 1590.41 269.641C1547.74 276.895 1502.81 283.57 1460.87 284.008C1437.18 284.315 1413.86 282.281 1391.19 277.929C1374.43 274.668 1352.5 271.574 1339.88 259.573C1308.05 229.293 1362.12 167.218 1384.98 142.542Z" stroke="#3A6247" stroke-width="0.5" />
        <path fill-rule="evenodd" clip-rule="evenodd" d="M1423.72 141.732C1518.28 46.286 1644.06 44.9149 1745.56 77.5746C1769.14 85.1686 1837.32 102.867 1829.22 143.971C1821.37 183.82 1762.39 202.534 1734.65 211.518C1648.69 239.354 1559.03 245.091 1473 252.382C1446.15 254.657 1394.9 263.635 1378.8 236.651C1361.33 207.326 1404.12 161.527 1423.72 141.732Z" stroke="#3A6247" stroke-width="0.5" />
        <path fill-rule="evenodd" clip-rule="evenodd" d="M1466.08 135.985C1539.59 67.9955 1641.82 63.5256 1719.64 87.4136C1738.7 93.2684 1788.38 105.941 1787.8 136.375C1787.28 164.53 1741.22 179.294 1723.57 185.537C1684.28 199.442 1643.44 206.022 1603.43 211.92C1566.43 217.385 1528.87 223.196 1492.34 224.802C1473.1 225.643 1435.68 229.528 1427.64 206.532C1418.98 181.787 1449.76 151.083 1466.08 135.985Z" stroke="#3A6247" stroke-width="0.5" />
        <path fill-rule="evenodd" clip-rule="evenodd" d="M1513.97 131.558C1564.9 88.7879 1637.96 83.9952 1691.26 99.0818C1705.59 103.148 1737.36 110.58 1739.59 131.101C1741.64 149.998 1714.7 160.491 1702.54 165.499C1648.65 187.7 1582.89 197.405 1528.86 195.524C1515.28 195.05 1490.34 195.11 1486.05 177.842C1481.66 160.117 1502.27 141.377 1513.97 131.558Z" stroke="#3A6247" stroke-width="0.5" />
        <path fill-rule="evenodd" clip-rule="evenodd" d="M1561.62 130.124C1588.35 109.499 1629.2 105.831 1657.05 113.191C1676.64 118.374 1694.75 134.032 1666.39 149.059C1638.23 163.963 1598.68 169.625 1570.14 165.805C1548.36 162.888 1538.66 147.842 1561.62 130.124Z" stroke="#3A6247" stroke-width="0.5" />
        <path fill-rule="evenodd" clip-rule="evenodd" d="M556.826 -200.478C586.777 -254.003 595.412 -322.561 638.128 -370.089C673.208 -409.125 722.781 -385.572 762.859 -389.355C794.706 -392.357 823.899 -413.324 851.824 -433.489C876.904 -451.588 901.289 -471.064 926.725 -488.424C943.178 -499.641 973.64 -522.73 990.206 -513.94C1006.07 -505.529 1006.62 -473.576 1007.55 -454.34C1008.76 -429.264 1007.94 -403.747 1008.65 -378.575C1009.82 -336.126 1019.55 -299.612 1033.35 -262.413C1049.06 -220.084 1065.75 -178.324 1083.44 -137.131C1096.44 -106.751 1109.66 -76.4102 1120.79 -44.842C1127.76 -25.0366 1145.42 14.7516 1132.94 36.6978C1126.98 47.1691 1112.18 54.0474 1101.88 59.2342C1084.45 68.016 1066.42 74.8424 1048.52 81.3708C1015.17 93.5332 981.607 104.146 948.107 115.16C904.627 129.453 862.611 143.945 820.027 164.066C775.975 184.91 732.337 207.513 688.513 229.356C658.829 244.156 627.463 261.909 596.092 263.429C556.821 265.296 544.452 232.415 515.58 215.52C490.746 200.982 533.138 131.788 541.244 110.431C549.476 88.8305 553.089 66.3943 561.813 45.0128C572.706 18.3247 587.272 -7.01243 600.873 -32.4968C617.516 -63.6643 633.922 -93.0133 613.755 -120.139C602.272 -135.566 586.515 -146.479 572.961 -159.557C564.182 -168.033 547.362 -183.568 556.826 -200.478Z" stroke="#3A6247" stroke-width="0.5" />
        <path fill-rule="evenodd" clip-rule="evenodd" d="M573.294 -202.774C596.323 -248.698 613.706 -314.431 654.775 -351.894C689.868 -383.911 731.808 -366.569 769.957 -372.055C801.441 -376.569 827.132 -398.804 853.727 -419.869C875.061 -436.766 896.255 -454.024 918.361 -469.546C934.652 -480.985 960.982 -500.971 977.974 -495.51C993.249 -490.6 994.393 -458.937 995.188 -442.706C996.342 -419.014 995.027 -394.761 994.252 -370.722C992.896 -328.493 993.832 -289.279 1005.44 -251.014C1017.09 -212.584 1034.61 -178.79 1052 -144.099C1065.61 -116.958 1078.86 -89.4605 1090.08 -60.7087C1098.44 -39.2977 1111.59 -10.4813 1105.87 15.8452C1101.35 36.674 1055.93 49.4367 1041.55 54.8951C1011.98 66.1063 982.116 75.4252 952.293 84.6026C915.941 95.7802 880.618 103.524 844.935 119.599C781.123 148.331 716.176 192.457 649.477 202.733C609.247 208.932 575.372 196.958 546.665 176.069C535.297 167.798 544.372 145.364 549.834 132.377C558.906 110.801 570.399 90.1548 580.105 68.8346C589.189 48.8755 595.496 28.577 602.925 8.15474C610.456 -12.5345 620.637 -32.3153 629.116 -52.6318C634.383 -65.2427 640.777 -79.7658 639.617 -93.0046C638.421 -106.708 629.504 -117.288 621.44 -126.066C606.264 -142.496 557.044 -170.363 573.294 -202.774Z" stroke="#3A6247" stroke-width="0.5" />
        <path fill-rule="evenodd" clip-rule="evenodd" d="M601.494 -212.856C620.688 -256.241 643.915 -310.669 683.543 -338.027C715.941 -360.4 750.974 -349.105 784.837 -356.352C813 -362.376 835.314 -384.878 858.744 -404.241C877.965 -420.121 897.277 -436.066 917.534 -450.048C932.897 -460.651 953.261 -475.295 969.978 -472.465C984.269 -470.043 986.329 -442.908 987.262 -429.455C988.841 -406.534 987.216 -382.802 985.671 -359.35C983.138 -320.978 978.253 -281.243 985.176 -244.868C991.922 -209.554 1008.08 -181.711 1023.69 -151.874C1035.64 -129.017 1047.21 -105.766 1056.74 -81.2259C1064.06 -62.3901 1073.48 -39.6435 1070.05 -17.2757C1067.1 2.02405 1040.53 11.5958 1026.21 18.1758C1002.58 29.0309 978.391 37.5468 954.363 46.2465C928.436 55.6285 901.667 62.6446 875.979 72.7615C821.943 94.0644 771.776 123.203 715.761 131.122C679.481 136.255 635.586 134.631 607.855 114.445C587.914 99.9229 622.356 43.4869 630.87 24.0232C644.775 -7.8116 656.426 -42.9603 662.024 -76.429C666.802 -105.119 649.978 -124.485 633.693 -140.897C623.495 -151.185 611.832 -160.279 603.079 -172.153C592.95 -185.905 593.449 -194.67 601.494 -212.856Z" stroke="#3A6247" stroke-width="0.5" />
        <path fill-rule="evenodd" clip-rule="evenodd" d="M626.725 -223.405C644.055 -259.466 668.232 -299.991 702.445 -320.136C732.42 -337.776 762.86 -329.46 793.585 -339.269C817.561 -346.918 838.475 -369.839 858.658 -386.58C883.331 -407.05 924.599 -447.331 954.603 -443.125C982.511 -439.206 972.636 -367.44 970.828 -345.386C967.969 -310.479 961.454 -274.14 962.571 -239.744C963.536 -210.13 974.742 -187.625 986.544 -163.578C1001.57 -132.889 1027.57 -91.8009 1022.09 -51.9793C1018.01 -22.3046 965.517 -4.87799 945.021 5.52498C923.596 16.3844 903.118 32.0833 881.684 42.1196C847.859 57.9563 805.517 62.0223 771.327 64.0455C738.082 66.0219 696.663 65.5518 669.92 48.7898C652.341 37.7771 668.397 2.07353 674.076 -16.6109C682.106 -43.1971 686.92 -68.39 680.428 -93.3443C673.821 -118.746 659.408 -137.21 643.481 -155.274C635.291 -164.522 625.239 -173.842 620.127 -185.952C614.412 -199.217 620.067 -209.543 626.725 -223.405Z" stroke="#3A6247" stroke-width="0.5" />
        <path fill-rule="evenodd" clip-rule="evenodd" d="M655.283 -233.769C672.659 -263.534 696.659 -292.13 726.632 -305.564C751.596 -316.755 777.045 -310.665 801.663 -322.624C821.158 -332.09 839.099 -350.796 856.557 -364.766C877.934 -381.895 912.406 -413.47 938.283 -408.805C963.527 -404.232 957.511 -351.088 955.831 -329.656C953.352 -298.24 947.781 -266.632 945.447 -235.223C943.603 -210.588 947.789 -191.621 955.742 -170.489C965.074 -145.674 980.516 -115.249 976.056 -85.6313C972.798 -64.2039 940.101 -45.7664 925.192 -33.8097C915.185 -25.7745 905.427 -17.3803 896.923 -7.32488C890.301 0.505149 885.476 8.50126 876.572 13.3751C854.162 25.6284 827.494 13.5786 806.773 9.95283C779.257 5.13147 749.703 0.638175 724.861 -11.2563C709.582 -18.5483 711.555 -39.1964 709.845 -55.5026C707.827 -74.777 699.501 -92.5908 693.222 -109.869C684.949 -132.694 672.293 -151.208 659.15 -170.273C653.223 -178.875 645.826 -188.223 643.965 -199.619C641.988 -211.462 649.014 -223.026 655.283 -233.769Z" stroke="#3A6247" stroke-width="0.5" />
        <path fill-rule="evenodd" clip-rule="evenodd" d="M683.908 -241.077C701.238 -264.446 724.03 -283.202 749.418 -292.171C768.892 -299.067 788.755 -297.834 807.512 -308.788C824.994 -319 841.041 -332.813 857.616 -344.949C875.147 -357.774 903.036 -380.022 923.276 -374.62C945.087 -368.794 942.911 -331.431 941.697 -310.728C940.161 -284.567 935.287 -258.27 932.268 -232.029C930.091 -212.428 930.577 -193.078 933.71 -174.623C936.957 -155.2 944.391 -134.112 939.42 -112.829C935.007 -93.9824 914.709 -79.7808 903.709 -64.4233C891.953 -48.0161 884.413 -28.019 866.282 -18.5507C828.891 0.975938 782.97 -33.0274 754.452 -48.5426C726.296 -63.8222 714.854 -95.4994 702.738 -126.343C694.731 -146.711 685.064 -165.619 676.216 -185.394C667.202 -205.563 668.657 -220.51 683.908 -241.077Z" stroke="#3A6247" stroke-width="0.5" />
        <path fill-rule="evenodd" clip-rule="evenodd" d="M1206.87 1281.92C1141.85 1289.28 1074.27 1287.36 1009.36 1287.58C914.515 1287.9 819.259 1286.51 726.868 1274.26C677.335 1267.68 611.766 1261.56 576.236 1223.99C563.245 1210.25 557.139 1187.78 548.396 1170.43C536.339 1146.51 523.632 1123.06 510.974 1099.6C485.571 1052.56 459.905 1005.69 436.082 957.474C424.613 934.253 415.57 908.112 402.275 886.285C394.508 873.525 379.228 868.624 366.859 862.039C338.205 846.792 309.093 832.376 280.13 817.702C244.707 799.749 209.139 781.867 175.131 761.371C159.795 752.123 119.845 733.613 120.664 712.479C121.11 701.101 141.041 691.576 150.272 687.174C167.229 679.079 184.799 673.101 202.159 667.165C242.305 653.436 283.192 641.887 322.517 623.379C342.728 613.861 368.397 602.794 373.69 576.985C379.041 550.921 377.367 524.726 382.261 498.498C387.888 468.312 399.289 440.088 410.466 411.075C418.723 389.629 421.568 368.059 425.253 346.031C429.329 321.685 433.234 297.014 440.232 272.891C444.852 256.955 453.801 228.651 470.932 226.727C495.279 223.984 521.455 252.58 538.801 267.481C562.778 288.065 585.751 309.936 609.369 330.974C626.511 346.254 643.492 361.967 663.037 373.834C694.544 392.964 728.133 408.732 761.426 424.574C823.074 453.908 885.24 481.369 944.444 515.396C996.313 545.208 1074.15 686.9 1094.81 715.845C1136.04 773.622 1179.52 830.923 1212.86 895.429C1221.88 912.887 1236.85 937.851 1233.44 961.16C1231.35 975.525 1225.31 981.055 1231.93 994.897C1240.98 1013.78 1257.83 1028.84 1271.76 1042.97C1294.18 1065.72 1317.46 1087.45 1340.41 1109.57C1386.85 1154.27 1431.89 1200.54 1477.41 1246.3C1491.17 1260.14 1510.36 1272.48 1521.41 1289.27C1528.54 1300.07 1523.84 1305.81 1511.65 1308.99C1490.28 1314.58 1466.88 1311.06 1446.36 1309.47C1416.31 1307.13 1386.56 1303.36 1356.89 1299.44C1327.21 1295.52 1297.59 1291.22 1267.89 1287.32C1248.29 1284.72 1227.16 1279.62 1206.87 1281.92Z" stroke="#3A6247" stroke-width="0.5" />
        <path fill-rule="evenodd" clip-rule="evenodd" d="M1173.38 1252.49C1105.68 1258.42 1036.63 1254.45 969.878 1250.94C884.436 1246.46 798.713 1239.02 716.979 1219.94C668.993 1208.73 612.915 1194.57 579.272 1156.47C567.27 1142.87 562.661 1125.17 555.644 1107.85C547.654 1088.09 538.553 1068.96 529.358 1050C510.43 1010.97 490.756 972.472 470.337 934.506C459.546 914.354 449.109 889.675 432.185 875.108C418.731 863.523 399.135 857.835 383.241 850.322C354.619 836.791 325.964 823.33 297.488 809.52C264.631 793.581 231.782 777.42 200.339 758.877C182.814 748.542 150.652 734.398 146.165 713.393C142.252 695.064 207.084 674.172 218.841 669.881C255.556 656.486 292.681 644.976 328.927 628.918C350.326 619.464 376.369 607.975 393.914 589.226C408.862 573.245 412.708 547.458 417.659 527.589C423.87 502.707 431.714 477.722 436.674 452.719C441.096 430.444 440.597 408.05 441.52 386.021C442.537 361.789 443.608 337.179 448.112 312.694C450.903 297.639 455.664 272.477 471.353 265.614C489.461 257.713 515.631 284.718 527.388 294.086C551.209 313.143 573.697 334.044 596.569 354.331C634.56 388.022 671.184 419.441 716.181 442.819C774.783 473.255 835.23 500.365 894.244 530.06C916.045 541.013 938.873 550.961 959.264 564.394C970.952 572.099 977.584 581.893 978.78 596.076C980.42 615.437 998.164 635.832 1009 652.627C1025.89 678.807 1043.59 704.297 1061.14 729.898C1099.64 786.109 1139.71 841.985 1171.13 904.123C1181.08 923.778 1192.64 945.97 1194.48 970.06C1195.51 983.496 1188.49 991.829 1186.6 1004.39C1184.15 1020.94 1198.17 1037.1 1206.1 1047.53C1221.41 1067.68 1239.17 1085.49 1256.97 1102.85C1297.26 1142.12 1340.06 1177.31 1384.72 1210.78C1395.19 1218.62 1436.8 1248.81 1400.39 1258.16C1360.16 1268.5 1315.91 1259.46 1277.45 1256.21C1242.82 1253.25 1208.68 1249.4 1173.38 1252.49Z" stroke="#3A6247" stroke-width="0.5" />
        <path fill-rule="evenodd" clip-rule="evenodd" d="M1110.58 1208.31C1048.12 1211.85 985.11 1205.07 924.05 1198.13C849.956 1189.7 775.984 1177.64 706.41 1154.71C662.709 1140.3 616.079 1121.72 584.994 1086.06C563.763 1061.72 557.499 1025.29 544.02 994.954C530.54 964.62 515.518 934.784 498.243 907.182C487.521 890.052 475.663 872.187 457.815 863.377C414.423 841.949 368.975 824.199 325.299 803.159C296.394 789.261 267.641 774.97 240.119 758.482C223.52 748.544 199.773 736.525 191.107 717.282C181.531 696.006 327.298 645.114 342.128 638.48C379.31 621.844 426.251 598.383 445.677 555.497C464.245 514.498 464.369 475.993 463.146 434.804C462.475 411.388 454.979 345.554 480.624 330.341C495.279 321.642 516.552 339.796 527.373 347.183C548.699 361.739 568.757 378.207 589.103 394.19C618.785 417.467 647.891 443.797 679.188 464.599C700.983 479.08 724.894 490.207 747.599 503.203C780.153 521.841 812.503 540.832 844.822 559.877C871.957 575.871 899.667 591.399 925.044 610.219C940.831 621.9 951.134 633.676 956.098 653.071C960.419 669.943 972.698 685.425 982.19 700.029C997.871 724.144 1014.32 747.598 1030.6 771.18C1064.68 820.559 1099.57 869.778 1128.42 923.584C1141.59 948.14 1165.81 985.839 1152.77 1019.53C1148.07 1031.68 1146.57 1037.23 1151.88 1048.73C1159.42 1065.04 1172.33 1077.86 1184.58 1089.6C1213.14 1116.97 1248.13 1135.44 1276.69 1162.67C1288.29 1173.81 1301.8 1191.2 1276.79 1198.86C1247.57 1207.85 1215.17 1203.4 1186.66 1202.94C1172.42 1202.71 1158.08 1201.9 1143.64 1203.3C1132.53 1204.39 1121.64 1207.72 1110.58 1208.31Z" stroke="#3A6247" stroke-width="0.5" />
        <path fill-rule="evenodd" clip-rule="evenodd" d="M1029.8 1148.99C973.985 1148.92 918.349 1140.21 864.525 1130.26C804.754 1119.17 745.517 1104.4 690.408 1080.93C652.347 1064.74 613.691 1044.2 586.679 1011.28C569.598 990.464 564.814 964.578 554.422 939.203C538.757 900.875 518.128 865.782 481.585 850.435C440.623 833.217 400.221 814.742 360.378 795.008C336.344 783.107 312.428 770.793 289.772 756.44C275.443 747.371 257.127 735.439 249.003 720.031C238.138 699.405 349.802 654.148 364.722 646.773C401.724 628.483 434.27 605.684 464.019 573.774C488.29 547.732 487.748 515.984 486.098 485.121C485.064 465.949 475.955 413.989 495.606 401.16C506.415 394.069 522.733 404.137 531.953 408.756C549.52 417.565 566.02 428.39 582.774 438.608C607.497 453.724 636.931 464.415 659.662 482.491C710.044 522.54 760.93 561.392 813.166 599.018C841.963 619.756 871.11 640.314 897.948 663.813C907.582 672.25 917.5 681.023 924.976 691.88C929.788 698.86 930.296 706.329 933.345 713.972C947.904 750.378 976.52 781.252 998.816 812.037C1028.46 852.961 1058.47 893.729 1085.17 937.293C1099.21 960.208 1120.42 989.452 1121.38 1020.3C1121.67 1029.62 1116.68 1034.07 1115.55 1042.22C1114.23 1051.61 1122.28 1059.26 1127.1 1064.86C1138.03 1077.57 1191.25 1117.87 1148.45 1130.96C1128.04 1137.18 1106.95 1136.59 1086.6 1139C1079.23 1139.87 1071.98 1140.84 1064.69 1143.55C1052.49 1148.1 1042.55 1148.99 1029.8 1148.99Z" stroke="#3A6247" stroke-width="0.5" />
        <path fill-rule="evenodd" clip-rule="evenodd" d="M944.145 1085.45C838.898 1076.83 726.585 1047.61 639.321 990.614C610.305 971.652 581.326 947.37 566.629 912.824C557.974 892.434 553.262 872.323 537.252 857.553C525.693 846.893 509.394 842.087 495.3 835.637C474.885 826.297 454.569 816.761 434.412 806.908C409.439 794.667 384.595 782.021 360.87 767.514C343.918 757.146 319.829 744.008 311.354 724.174C301.227 700.508 382.984 663.778 395.848 656.254C427.026 638.017 453.081 617.961 475.897 587.501C482.556 578.633 492.092 571.101 497.133 561.203C502.27 551.088 502.336 539.49 502.193 529.134C502.02 515.568 495.012 479.601 508.101 470.702C515.332 465.789 528.212 472.05 535.466 474.296C549.081 478.494 562.143 484.052 575.509 488.85C598.195 496.974 625.544 496.686 645.976 508.883C700.93 541.664 745.145 594.898 792.883 637.615C821.25 663.033 850.203 687.944 876.778 715.56C885.185 724.3 893.836 733.317 900.565 743.813C905.26 751.137 905.991 759.8 909.953 767.255C925.133 795.866 947.269 820.659 967.023 845.398C992.653 877.539 1018.62 909.351 1043.54 942.204C1059.15 962.796 1081.28 985.732 1089.73 1012.14C1095.91 1031.42 1084.98 1029.85 1071.77 1036.91C1065.03 1040.51 1062.65 1046.5 1057.46 1051.98C1050.05 1059.8 1040.14 1062.81 1031 1065.37C1018.38 1068.91 1003.94 1069.51 991.71 1075.72C987.4 1077.9 984.998 1082.31 981.386 1084.3C970.868 1090.09 954.044 1086.26 944.145 1085.45Z" stroke="#3A6247" stroke-width="0.5" />
        <path fill-rule="evenodd" clip-rule="evenodd" d="M864.202 1021.73C782.853 1007.55 700.01 978.488 632.678 931.181C609.253 914.719 587.397 895.189 570.999 870.461C563.529 859.226 559.017 848.895 547.715 841.983C521.489 825.949 493.305 813.112 466.319 798.408C447.005 787.888 427.757 777.034 409.812 764.246C397.811 755.7 381.471 744.333 376.51 728.896C369.318 706.432 423.655 675.349 436.68 665.619C458.273 649.478 481.176 630.901 491.841 603.994C495.099 595.763 496.983 587.921 501.191 580.037C504.782 573.248 509.014 567.508 510.737 560.035C512.88 550.774 509.241 532.4 517.105 527.261C522.471 523.748 530.039 527.79 535.899 529.047C545.403 531.086 555.182 532.214 565.133 532.42C575.624 532.614 586.31 529.74 596.647 530.861C613.421 532.691 628.726 540.754 642.784 548.867C698.87 581.249 747.983 627.354 794.606 672.843C818.886 696.529 843.044 720.789 864.342 747.79C870.808 755.992 878.387 764.851 882.192 775.32C884.572 781.843 884.9 788.492 888.461 794.417C918.889 845.014 965.33 884.002 1002.5 929.279C1012.18 941.065 1067.12 1004.09 1018.44 1005.7C988.868 1006.68 962.31 999.588 931.775 1006.63C922.48 1008.76 915.76 1011.09 908.449 1018.3C903.599 1023.1 909.019 1022.37 900.342 1025.32C889.854 1028.83 873.68 1023.38 864.202 1021.73Z" stroke="#3A6247" stroke-width="0.5" />
        <path fill-rule="evenodd" clip-rule="evenodd" d="M803.056 967.62C712.87 942.408 629.035 895.491 559.377 831.856C541.814 815.819 520.239 804.839 500.508 791.988C481.328 779.517 444.805 761.538 441.096 734.774C438.404 715.371 466.173 693.383 478.746 680.636C494.764 664.397 510.518 647.164 513.04 623.901C514.516 610.276 513.916 596.154 514.985 582.431C515.492 575.875 514.974 565.083 519.897 561.427C528.03 555.4 546.33 561.413 556.45 562.182C588.793 564.642 617.424 576.982 644.48 592.645C694.452 621.578 739.974 658.814 782.574 698.314C802.173 716.489 821.885 735.191 838.469 756.735C847.855 768.923 851.268 783.992 859.674 796.594C886.734 837.185 921.667 870.641 950.308 909.997C958.596 921.391 990.722 961.927 958.437 969.396C927.181 976.625 898.818 957.33 867.401 962.973C863.831 963.635 859.463 964.372 856.174 966.868C854.216 968.367 853.496 972.946 852.225 973.708C838.701 982.154 814.501 970.824 803.056 967.62Z" stroke="#3A6247" stroke-width="0.5" />
        <path fill-rule="evenodd" clip-rule="evenodd" d="M759.382 925.05C715.214 908.63 673.084 886.639 631.879 863.522C609.356 850.887 583.754 838.487 565.836 818.987C554.835 806.998 543.986 795.806 531.662 785.152C518.403 773.686 495.583 757.774 495.526 736.905C495.485 721.312 514.012 699.955 522.464 685.882C531.728 670.443 535.778 657.374 533.186 641.025C531.561 630.735 520.227 590.257 527.484 584.634C534.393 579.276 553.168 588.637 562.069 591.329C590.213 599.815 616.516 612.254 641.572 627.074C680.383 650.017 716.812 677.423 750.47 707.882C764.375 720.493 778.742 733.533 789.936 749.196C797.472 759.75 801.224 772.939 808.601 783.611C829.716 814.195 855.069 841.293 876.139 872.189C882.896 882.113 906.473 911.743 888.409 926.142C873.335 938.167 849.837 930.958 833.622 935.504C806.01 943.286 783.651 934.079 759.382 925.05Z" stroke="#3A6247" stroke-width="0.5" />
        <path fill-rule="evenodd" clip-rule="evenodd" d="M739.111 901.196C704.494 887.22 670.576 870.314 637.999 851.717C616.975 839.715 594.633 827.336 577.336 809.783C568.645 800.97 563.527 789.096 556.497 778.684C549.255 767.969 538.511 754.482 540.665 740.697C542.69 727.742 553.148 713.155 556.931 698.306C560.28 685.126 557.63 674.273 554.846 662.464C553.082 654.925 541.738 620.159 547.168 617.045C552.987 613.711 566.918 622.26 574.69 625.804C596.121 635.533 616.86 646.628 636.816 659.039C664.014 676.047 690.358 695.025 713.904 717.246C730.612 733.003 738.871 752.411 752.275 770.866C769.625 794.802 789.082 817.026 805.639 841.818C813.89 854.171 826.74 871.349 824.139 889.502C823.149 896.463 817.055 912.11 811.26 916.309C804.295 921.356 791.311 917.731 784.959 916.407C769.057 913.068 753.824 907.137 739.111 901.196Z" stroke="#3A6247" stroke-width="0.5" />
        <path fill-rule="evenodd" clip-rule="evenodd" d="M536.878 28.0226C543.944 -46.265 572.181 -121.614 568.052 -198.316C564.663 -261.31 521.057 -270.419 497.057 -300.955C477.986 -325.215 469.486 -365.945 461.409 -405.016C454.149 -440.095 448.016 -476.108 440.162 -510.674C435.076 -533.021 426.803 -576.75 411.778 -578.861C397.394 -580.887 381.281 -548.815 371.195 -529.907C358.046 -505.26 345.991 -478.809 333.123 -453.725C311.433 -411.412 287.149 -380.824 259.898 -352.253C228.888 -319.745 197.518 -288.473 165.789 -258.437C142.422 -236.251 118.925 -214.259 96.1787 -189.621C81.9106 -174.161 50.8924 -145.532 48.1246 -114.939C46.8046 -100.342 52.9671 -83.4981 57.0557 -71.3726C63.9737 -50.8475 72.2425 -31.9087 80.576 -13.3572C96.0967 21.1995 112.525 54.3318 128.713 87.8262C149.724 131.297 169.692 173.994 187.252 222.786C205.402 273.287 222.417 325.299 239.927 376.664C251.785 411.461 263.272 450.376 282.767 472.814C307.19 500.867 331.387 475.725 358.351 477.805C381.547 479.588 388.312 381.107 393.613 354.028C398.952 326.616 407.685 301.433 412.599 273.916C418.73 239.568 421.825 204.144 425.615 169.213C430.244 126.487 434.129 85.7654 460.521 71.6607C475.539 63.6487 491.089 63.0653 506.286 58.8173C516.131 56.059 534.646 51.4924 536.878 28.0226Z" stroke="#3A6247" stroke-width="0.5" />
        <path fill-rule="evenodd" clip-rule="evenodd" d="M527.032 12.2011C534.835 -49.9089 556.076 -128.405 548.036 -193.949C541.167 -249.96 505.482 -260.312 483.529 -291.365C465.404 -316.979 459.781 -356.759 452.995 -395.95C447.551 -427.389 442.377 -459.102 435.754 -489.656C430.874 -512.174 423.726 -550.091 410.042 -555.877C397.74 -561.08 381.356 -529.622 372.821 -513.635C360.368 -490.297 349.235 -464.738 337.858 -439.757C317.869 -395.879 297.887 -356.598 271.478 -325.407C244.951 -294.082 216.929 -271.387 188.542 -247.698C166.334 -229.162 144.18 -210.027 122.722 -188.256C106.739 -172.048 83.9961 -151.505 74.6841 -120.897C67.3138 -96.6845 90.3772 -53.368 96.9734 -38.2164C110.554 -7.06258 125.255 22.3569 140.002 51.6076C157.982 87.252 176.993 118.716 192.12 158.898C219.179 230.74 239.366 319.005 277.411 373.993C300.357 407.16 328.175 417.592 357.056 415.501C368.492 414.674 373.71 385.786 376.596 368.923C381.392 340.91 384.163 312.227 388.423 284.05C392.412 257.674 398.364 232.807 403.652 207.065C409.006 180.983 412.197 154.056 416.755 127.721C419.58 111.371 422.623 92.323 429.914 79.6248C437.458 66.4786 448.451 61.6657 458.002 58.1169C475.932 51.5297 521.524 56.0321 527.032 12.2011Z" stroke="#3A6247" stroke-width="0.5" />
        <path fill-rule="evenodd" clip-rule="evenodd" d="M515.338 -13.6942C524.352 -70.4819 536.211 -141.155 524.094 -195.29C514.191 -239.553 485.957 -251.42 467.637 -281.315C452.398 -306.176 449.081 -343.858 443.491 -379.097C438.903 -408.002 434.289 -437.034 428.093 -464.703C423.395 -485.686 417.457 -514.098 405.249 -522.357C394.811 -529.415 380.077 -503.262 372.83 -490.237C360.489 -468.037 349.82 -442.883 339.237 -418.065C321.925 -377.456 305.46 -333.898 283.019 -301.609C261.217 -270.279 237.018 -252.792 212.188 -232.919C193.17 -217.693 174.205 -201.81 155.923 -183.261C141.886 -169.029 124.563 -152.225 115.736 -127.251C108.107 -105.716 120.565 -78.3144 126.573 -62.1094C136.496 -35.3646 147.934 -10.6211 159.177 14.2007C171.311 40.9792 185.157 65.9174 196.773 93.2821C221.198 150.867 239.251 213.824 271.565 259.149C292.492 288.51 321.681 316.085 349.584 314.072C369.652 312.618 375.25 232.441 379.356 207.029C386.085 165.48 395.909 122.069 408.818 84.3929C419.897 52.1098 440.341 43.6673 458.978 37.8614C470.653 34.2147 482.687 32.7551 494.211 26.5375C507.553 19.3319 511.56 10.109 515.338 -13.6942Z" stroke="#3A6247" stroke-width="0.5" />
        <path fill-rule="evenodd" clip-rule="evenodd" d="M501.91 -39.7637C508.513 -87.9681 512.903 -145.275 500.775 -188.558C490.145 -226.472 466.421 -238.313 451.447 -268.766C439.76 -292.525 437.576 -329.765 432.815 -360.235C426.999 -397.49 420.25 -465.943 398.832 -481.671C378.907 -496.294 349.898 -416.77 340.192 -393.15C324.828 -355.765 311.115 -314.489 293.439 -280.275C278.219 -250.82 259.9 -235.417 240.437 -218.845C215.619 -197.675 178.603 -173.247 162.506 -129.121C150.508 -96.2411 175.763 -43.5306 183.849 -19.2925C192.309 6.02808 197.772 35.6362 206.644 60.127C220.645 98.7732 245.939 131.135 266.985 155.986C287.444 180.158 314.379 207.294 339.884 208.087C356.646 208.614 363.894 161.622 369.443 138.846C377.372 106.471 386.687 77.656 403.174 56.622C419.955 35.2098 438.349 26.052 457.522 18.3113C467.361 14.3719 478.436 11.6014 487.702 2.70107C497.925 -6.97095 499.369 -21.2354 501.91 -39.7637Z" stroke="#3A6247" stroke-width="0.5" />
        <path fill-rule="evenodd" clip-rule="evenodd" d="M489.976 -70.752C493.441 -112.522 492.062 -157.515 479.365 -191.101C468.791 -219.075 449.391 -229.837 439.419 -258.36C431.519 -280.943 429.172 -311.868 424.804 -337.666C419.467 -369.278 412.806 -424.265 393.833 -436.757C375.313 -448.922 353.01 -390.991 343.536 -368.126C329.657 -334.597 317.677 -298.814 303.708 -265.389C292.762 -239.164 280.721 -222.705 265.186 -206.556C246.949 -187.587 222.01 -166.995 210.294 -133.972C201.839 -110.059 213.826 -69.5844 217.544 -47.5265C220.034 -32.7119 222.187 -17.6976 222.714 -1.8333C223.124 10.5205 222.294 21.8461 225.631 32.7195C234.036 60.0711 257.157 65.5971 272.296 75.7117C292.402 89.1368 313.66 104.252 335.528 108.719C348.966 111.491 357.866 89.2254 367.001 73.818C377.796 55.603 391.936 43.0694 404.494 29.7161C421.069 12.0626 438.345 1.70112 456.205 -8.89528C464.262 -13.6782 473.634 -18.2391 480.447 -28.5644C487.554 -39.2652 488.723 -55.677 489.976 -70.752Z" stroke="#3A6247" stroke-width="0.5" />
        <path fill-rule="evenodd" clip-rule="evenodd" d="M473.286 -98.5436C473.627 -133.862 468.156 -168.134 456.172 -194.188C446.987 -214.189 433.533 -226.186 426.816 -249.834C420.559 -271.878 417.007 -296.626 412.286 -320.02C407.287 -344.753 400.246 -385.975 384.489 -393.984C367.507 -402.611 350.452 -363.175 341.006 -341.318C329.073 -313.697 319.23 -283.711 308.216 -255.02C299.938 -233.641 290.063 -214.293 278.918 -197.621C267.221 -180.041 251.993 -163.562 244.691 -138.608C238.232 -116.504 244.34 -88.5266 243.865 -65.5751C243.359 -41.0532 238.354 -15.6937 245.399 6.02667C259.929 50.8205 306.425 46.8847 332.532 50.1351C358.289 53.383 381.34 28.8116 404.416 5.53745C419.658 -9.82824 435.252 -22.6013 450.745 -36.8032C466.54 -51.2948 472.985 -67.4613 473.286 -98.5436Z" stroke="#3A6247" stroke-width="0.5" />
        <path fill-rule="evenodd" clip-rule="evenodd" d="M459.457 -119.608C455.897 -171.013 433.449 -200.161 419.044 -240.05C407.259 -272.705 401.995 -338.628 378.333 -349.389C351.47 -361.603 327.464 -277.008 314.969 -244.653C301.105 -208.77 279.487 -180.501 268.21 -142.214C262.285 -122.119 264.212 -102.706 264.664 -82.0541C265.156 -59.3776 265.002 -36.251 271.827 -17.4272C285.261 19.617 317.512 22.2337 340.638 25.2752C364.578 28.4273 387.936 5.93533 409.178 -16.6968C431.704 -40.6611 463.098 -66.8927 459.457 -119.608Z" stroke="#3A6247" stroke-width="0.5" />
        <path fill-rule="evenodd" clip-rule="evenodd" d="M446.669 -135.409C440.826 -172.441 424.52 -203.574 411.625 -232.742C400.86 -257.059 391.153 -304.95 371.979 -310.006C349.444 -315.963 331.284 -267.358 319.65 -237.6C308.202 -208.36 292.705 -177.79 284.958 -145.27C276.883 -111.395 286.517 -63.9496 297.412 -38.5027C309.565 -10.1266 332.405 1.98861 352.837 2.7154C374.228 3.50826 395.699 -17.143 413.829 -38.9314C433.213 -62.2226 453.472 -92.4177 446.669 -135.409Z" stroke="#3A6247" stroke-width="0.5" />
        <path fill-rule="evenodd" clip-rule="evenodd" d="M399.785 936.309C420.108 979.304 467.524 1012.37 473.974 1062.48C479.273 1103.63 425.188 1131.16 399.316 1162.3C378.755 1187.04 374.156 1216.81 369.841 1245.32C365.957 1270.93 363.649 1296.55 358.931 1322.14C355.87 1338.68 352.017 1370.21 333.225 1379.05C315.235 1387.52 289.844 1375.49 274.128 1368.7C253.639 1359.84 234.269 1349.3 214.071 1340.03C180.023 1324.38 144.463 1317.38 105.437 1313.12C61.0264 1308.28 16.348 1304.39 -28.5986 1301.45C-61.7101 1299.25 -94.9572 1297.23 -127.653 1293.19C-148.163 1290.64 -191.991 1288.23 -200.179 1270.46C-204.085 1261.97 -198.816 1248.34 -195.464 1238.7C-189.795 1222.38 -182.165 1206.38 -174.393 1190.59C-159.921 1161.17 -144.076 1132.2 -128.592 1103.12C-108.494 1065.37 -89.6054 1028.64 -74.7106 989.287C-59.3258 948.571 -45.6149 907.477 -31.1754 866.54C-21.3989 838.81 -12.7222 808.686 8.65597 784.875C35.4456 755.081 70.0643 758.72 104.05 743.922C133.287 731.197 156.917 789.497 167.792 803.806C178.767 818.304 193.718 829.708 204.168 844.484C217.208 862.931 226.549 883.571 236.699 903.553C249.106 927.999 260.262 951.561 295.988 947.189C316.316 944.691 336.188 937.274 356.168 932.33C369.114 929.131 393.365 922.725 399.785 936.309Z" stroke="#3A6247" stroke-width="0.5" />
        <path fill-rule="evenodd" clip-rule="evenodd" d="M389.543 950.923C408.949 985.929 447.957 1024.47 447.724 1069.56C447.528 1108.09 403.693 1132.45 380.492 1162.89C361.333 1188.01 360.246 1215.75 357.589 1243.7C355.457 1266.12 353.71 1288.58 349.944 1311.04C347.168 1327.59 343.856 1354.93 327.324 1365.4C312.462 1374.82 286.811 1363.32 273.51 1357.57C254.101 1349.19 236.033 1338.75 217.743 1328.79C185.609 1311.31 154.187 1296.7 115.818 1290.38C77.2809 1284.04 38.1552 1283.85 -1.58531 1283.22C-32.6756 1282.73 -63.7897 1281.83 -94.4195 1278.93C-117.234 1276.78 -149.311 1275.3 -165.832 1260.78C-178.905 1249.3 -156.162 1210.62 -150.079 1197.82C-137.549 1171.51 -123.328 1145.72 -109.023 1120.01C-91.5795 1088.67 -72.1853 1059.44 -59.064 1026.69C-35.5882 968.137 -23.3636 902.731 16.6651 849.232C40.8078 816.965 74.6186 796.502 111.693 783.352C126.374 778.144 137.422 793.631 143.667 802.751C154.045 817.9 161.947 834.483 171.667 850.003C180.767 864.531 192.136 877.131 202.793 890.611C213.586 904.271 221.756 919.543 231.573 933.761C237.664 942.589 244.442 953 255.658 957.305C267.266 961.764 281.99 959.276 294.686 956.717C318.51 951.867 375.845 926.221 389.543 950.923Z" stroke="#3A6247" stroke-width="0.5" />
        <path fill-rule="evenodd" clip-rule="evenodd" d="M378.805 973.395C398.959 1004.49 424.858 1042.87 417.689 1082.89C411.833 1115.61 377.678 1137.2 358.905 1165.13C343.29 1188.36 344.818 1213.66 343.078 1238.56C341.647 1258.98 340.203 1279.5 336.536 1299.96C333.754 1315.47 330.529 1336.27 316.239 1347.56C304.019 1357.22 281.257 1348.2 270.036 1343.67C250.926 1335.93 233.493 1325.5 216.222 1315.24C187.967 1298.45 160.342 1279.39 126.824 1270.38C94.2665 1261.66 60.77 1262.82 26.1055 1262.8C-0.446905 1262.78 -27.0311 1262.33 -53.152 1259.86C-73.2063 1257.97 -97.8398 1256.11 -112.899 1244.87C-125.905 1235.19 -114.219 1211.76 -109.04 1198.59C-100.484 1176.84 -89.6915 1155.59 -79.16 1134.39C-67.7918 1111.52 -53.9617 1088.94 -43.3424 1065.96C-21.0213 1017.6 -7.63807 969.074 26.6049 924.455C48.7804 895.554 81.7529 863.632 117.605 850.911C143.391 841.766 162.765 889.242 171.876 903.121C186.793 925.805 205.936 948.106 228.133 965.265C247.177 979.958 274.509 975.007 299.136 969.308C314.567 965.744 330.119 960.629 345.749 958.752C363.845 956.585 370.358 960.361 378.805 973.395Z" stroke="#3A6247" stroke-width="0.5" />
        <path fill-rule="evenodd" clip-rule="evenodd" d="M365.946 995.973C381.693 1022.85 396.012 1056.54 387.183 1089.71C379.441 1118.77 351.07 1138.05 336.665 1164.61C325.42 1185.34 328.318 1209.75 326.907 1231.21C325.188 1257.45 327.036 1303.69 302.19 1324.25C279.076 1343.38 230.054 1308.1 214.108 1298.17C188.867 1282.45 165.132 1263.47 137.434 1250.89C113.584 1240.07 87.9352 1239.59 60.6528 1238.95C25.8572 1238.12 -24.9496 1241.34 -52.1512 1221.77C-72.4244 1207.19 -48.335 1161.54 -41.7437 1142.32C-34.8426 1122.23 -32.4061 1100.96 -24.8541 1081.19C-12.9364 1049.98 14.3052 1017.06 37.287 990.969C59.6262 965.595 89.7512 935.125 122.072 921.866C143.313 913.148 159.696 938.944 170.226 950.428C185.245 966.732 201.486 980.113 225.663 985.032C250.273 990.042 275.065 986.571 300.634 981.823C313.749 979.366 328.259 975.558 341.401 976.495C355.879 977.435 359.89 985.643 365.946 995.973Z" stroke="#3A6247" stroke-width="0.5" />
        <path fill-rule="evenodd" clip-rule="evenodd" d="M354.265 1022.02C365.063 1046.49 370.186 1075.42 359.156 1102.85C349.97 1125.7 326.916 1142.17 318.58 1165.07C311.974 1183.19 313.715 1203.78 312.097 1222.15C310.135 1244.66 310.062 1282.5 287.816 1299.85C266.097 1316.76 228.843 1291.57 213.285 1281.97C190.488 1267.88 169.765 1251.42 146.869 1237.45C128.922 1226.47 111.076 1222.17 88.8273 1219.82C62.7073 1217.05 27.8072 1216.62 7.84169 1201.76C-6.57974 1190.99 2.49417 1159.59 3.85501 1143.89C4.76014 1133.34 5.20647 1122.84 3.45103 1112.62C2.08471 1104.67 -0.703583 1097.97 1.88295 1089.48C8.40176 1068.11 36.9945 1053.06 54.7225 1039.13C78.2693 1020.64 103.024 1000.5 130.183 986.748C146.869 978.278 161.604 987.793 175.59 992.887C192.119 998.911 212.039 999.694 230.069 1001.78C253.871 1004.56 277.45 1002.41 301.811 1000.11C312.8 999.081 325.429 997.249 335.683 1000.32C346.367 1003.47 350.365 1013.19 354.265 1022.02Z" stroke="#3A6247" stroke-width="0.5" />
        <path fill-rule="evenodd" clip-rule="evenodd" d="M339.51 1048.09C345.342 1070.08 343.605 1094.34 332.308 1116.71C323.656 1133.87 308.34 1148.14 303.391 1166.36C298.782 1183.33 298.037 1200.65 295.593 1217.7C293 1235.73 290.324 1265.14 271.461 1278.07C251.131 1292 223.364 1275.8 207.984 1266.81C188.55 1255.46 171.422 1241.58 152.997 1229.09C139.178 1219.82 123.633 1212.63 106.878 1207.75C89.2814 1202.59 67.3517 1199.88 54.23 1187.88C42.6188 1177.24 46.1293 1156.62 42.0167 1142.45C37.625 1127.31 27.3692 1113.9 33.0313 1096.74C44.7081 1061.33 104.581 1040.48 137.365 1025.35C169.702 1010.4 202.841 1014.26 235.814 1017.29C257.591 1019.3 279.422 1019.49 301.341 1020.64C323.69 1021.81 334.376 1028.73 339.51 1048.09Z" stroke="#3A6247" stroke-width="0.5" />
        <path fill-rule="evenodd" clip-rule="evenodd" d="M323.297 1067.24C326.634 1101.3 302.525 1130.83 290.296 1163.08C280.295 1189.48 283.686 1233.51 255.218 1252.11C222.897 1273.22 179.395 1232.13 158.539 1218.07C135.403 1202.49 103.562 1195.56 83.3485 1177.17C72.7317 1167.52 72.2122 1154.37 69.6264 1141.18C66.7821 1126.7 63.0457 1112.26 68.8509 1097.02C80.2798 1067.04 120.926 1049.25 149.895 1035.77C179.882 1021.8 213.053 1024.23 243.553 1027.8C275.89 1031.57 319.862 1032.32 323.297 1067.24Z" stroke="#3A6247" stroke-width="0.5" />
        <path fill-rule="evenodd" clip-rule="evenodd" d="M310.218 1083.85C308.456 1109.97 292.505 1137.63 280.587 1162.35C270.633 1182.97 265.624 1217.83 242.046 1230.57C214.338 1245.56 183.847 1224.17 164.523 1211.34C145.516 1198.73 121.162 1187.31 106.354 1170.8C90.9218 1153.6 95.9058 1119.06 105.854 1097.67C116.95 1073.82 144.106 1054.81 169.943 1044.15C196.988 1032.97 227.411 1035.19 253.767 1039.79C281.943 1044.7 312.287 1053.51 310.218 1083.85Z" stroke="#3A6247" stroke-width="0.5" />
        <path fill-rule="evenodd" clip-rule="evenodd" d="M296.461 1093.81C293.65 1116.18 281.745 1139.32 270.568 1160.2C261.943 1176.32 250.255 1202.41 231.345 1211.28C210.543 1221.04 186.145 1214.25 171.038 1202.92C156.142 1191.74 139.114 1177 130.573 1161.29C111.984 1127.07 148.663 1063.33 191.041 1048.47C231.22 1034.39 302.076 1049.23 296.461 1093.81Z" stroke="#3A6247" stroke-width="0.5" />
        <path fill-rule="evenodd" clip-rule="evenodd" d="M283.626 1102.29C278.964 1131.65 257.368 1180.11 224.21 1195.68C186.148 1213.56 160.253 1181.69 153.496 1153.29C146.577 1124.32 173.529 1066.05 211.234 1055.65C248.032 1045.51 289.143 1067.48 283.626 1102.29Z" stroke="#3A6247" stroke-width="0.5" />
        <path fill-rule="evenodd" clip-rule="evenodd" d="M269.69 1113.07C265.713 1137.78 249.61 1173.56 221.929 1186.66C188.943 1202.26 175.804 1171.35 174.802 1148.95C173.773 1125.68 193.233 1076.56 224.852 1068.98C255.608 1061.64 273.5 1089.39 269.69 1113.07Z" stroke="#3A6247" stroke-width="0.5" />
        <path fill-rule="evenodd" clip-rule="evenodd" d="M255.827 1121.5C253.663 1138.97 240.574 1165.62 220.941 1174.97C196.939 1186.37 190.652 1159.79 191.617 1145.19C192.756 1127.83 206.785 1092.33 229.561 1087.01C251.985 1081.78 257.62 1107.11 255.827 1121.5Z" stroke="#3A6247" stroke-width="0.5" />
        <path fill-rule="evenodd" clip-rule="evenodd" d="M-556.456 -58.9473C-487.165 -72.2904 -418.82 -74.6289 -352.386 -79.3664C-255.307 -86.2832 -158.469 -91.1697 -68.7383 -82.7724C-20.6345 -78.2644 44.0373 -75.4076 65.9024 -32.6007C73.898 -16.9517 71.4947 9.69256 73.7591 29.9833C76.8821 57.9619 80.8498 85.3326 84.7641 112.716C92.634 167.624 100.841 222.305 106.645 278.734C109.436 305.91 108.624 336.772 113.818 362.145C116.849 376.978 130.583 381.829 140.694 388.907C164.119 405.298 188.332 420.655 212.293 436.334C241.598 455.517 271.077 474.606 297.956 496.949C310.075 507.031 343.792 526.573 334.825 552.083C329.992 565.818 305.954 578.661 294.824 584.598C274.376 595.515 254.116 603.925 234.087 612.27C187.767 631.569 141.529 648.294 94.2106 673.292C69.8896 686.147 39.3927 701.243 24.0537 732.692C8.55656 764.452 0.191417 795.885 -14.9008 827.811C-32.2649 864.553 -54.7768 899.331 -77.3639 935.043C-94.0536 961.441 -105.261 987.615 -117.502 1014.4C-131.034 1044 -144.516 1073.98 -160.949 1103.52C-171.802 1123.03 -191.838 1157.74 -210.09 1161.23C-236.034 1166.21 -251.79 1133.57 -263.79 1116.82C-280.381 1093.68 -295.451 1068.92 -311.501 1045.21C-323.145 1027.99 -334.459 1010.23 -349.874 997.288C-374.721 976.417 -402.991 959.739 -430.93 942.951C-482.663 911.867 -535.646 883.074 -583.075 846.169C-624.629 813.836 -649.686 648.543 -659.667 615.105C-679.587 548.359 -701.999 482.34 -711.265 406.946C-713.764 386.541 -719.468 357.506 -707.016 329.198C-699.348 311.752 -691.045 304.677 -692.495 288.462C-694.473 266.34 -705.91 249.359 -714.707 233.304C-728.876 207.451 -744.317 182.879 -759.267 157.819C-789.539 107.179 -817.787 54.5628 -846.714 2.57441C-855.459 -13.141 -870.327 -26.6827 -875.158 -46.1406C-878.291 -58.659 -871.278 -65.8949 -857.599 -70.5693C-833.598 -78.7759 -811.034 -76.1429 -790.677 -75.6346C-760.851 -74.8875 -731.895 -72.3951 -703.069 -69.7182C-674.242 -67.0414 -645.615 -63.9074 -616.76 -61.2489C-597.719 -59.466 -578.083 -54.7842 -556.456 -58.9473Z" stroke="#3A6247" stroke-width="0.5" />
        <path fill-rule="evenodd" clip-rule="evenodd" d="M-533.641 -26.0998C-462.177 -37.8646 -393.128 -37.8077 -326.259 -38.1399C-240.659 -38.5911 -155.908 -35.4955 -79.7032 -18.1183C-34.9681 -7.9049 16.9061 5.3032 36.654 48.8726C43.6979 64.4174 41.6093 85.4125 42.1285 105.781C42.7071 129.015 44.6626 151.413 46.7772 173.609C51.1321 219.296 56.453 264.291 62.7399 308.595C66.029 332.113 67.2176 361.105 78.9192 377.482C88.2197 390.507 106.061 396.014 119.42 403.97C143.474 418.302 167.59 432.545 191.388 447.222C218.847 464.161 246.211 481.368 271.224 501.539C285.165 512.781 312.603 527.607 309.121 552.584C306.081 574.378 231.8 603.956 218.136 609.925C175.47 628.558 133.108 644.949 89.8989 666.755C64.3981 679.597 33.3699 695.206 8.2391 718.972C-13.1746 739.229 -27.0094 770.532 -39.6992 794.785C-55.6024 825.159 -73.2148 855.769 -87.886 886.203C-100.96 913.317 -109.05 940.238 -118.454 966.817C-128.8 996.054 -139.345 1025.75 -153.352 1055.53C-161.986 1073.84 -176.515 1104.45 -195.185 1113.79C-216.726 1124.53 -233.1 1093.82 -241.517 1083.34C-258.543 1062.03 -273.499 1038.41 -289.082 1015.56C-314.969 977.602 -340.333 942.287 -377.34 917.223C-425.541 884.593 -476.906 856.093 -525.814 824.384C-543.887 812.691 -563.397 802.277 -579.077 787.502C-588.063 779.027 -591.079 767.691 -586.855 750.701C-581.095 727.51 -591.397 704.173 -596.018 684.698C-603.232 654.341 -611.529 624.869 -619.627 595.254C-637.393 530.225 -656.881 465.709 -665.131 393.063C-667.744 370.085 -671.043 344.163 -663.673 315.293C-659.566 299.191 -649.185 288.68 -642.428 273.428C-633.569 253.343 -641.69 234.849 -645.791 222.833C-653.698 199.63 -665.007 179.405 -676.537 159.73C-702.63 115.213 -732.85 75.7794 -765.637 38.5427C-773.332 29.8314 -804.261 -3.67207 -763.463 -17.4127C-718.382 -32.6002 -676.625 -24.7449 -638.569 -23.4603C-604.312 -22.2708 -570.898 -19.9674 -533.641 -26.0998Z" stroke="#3A6247" stroke-width="0.5" />
        <path fill-rule="evenodd" clip-rule="evenodd" d="M-485.551 23.1215C-420.359 14.576 -358.578 18.4292 -298.849 22.6031C-226.369 27.6691 -155.413 37.1246 -93.1251 59.9591C-54.004 74.3131 -13.4893 93.4771 4.57798 134.267C16.92 162.117 9.32503 205.538 11.4461 241.126C13.5671 276.715 17.4555 311.598 24.5047 343.638C28.8805 363.523 34.1355 384.214 48.9893 393.596C85.0989 416.416 124.722 434.669 161.272 457.002C185.47 471.751 209.362 486.983 231.153 504.944C244.297 515.77 263.946 528.61 265.409 551.178C267.021 576.132 98.5122 647.37 80.809 656.371C36.4211 678.941 -20.5603 710.395 -56.8872 763.345C-91.6127 813.965 -106.532 860.321 -121.106 909.814C-129.416 937.953 -147.048 1016.68 -179.099 1036.75C-197.417 1048.22 -212.181 1027.83 -220.401 1019.68C-236.602 1003.62 -250.772 985.169 -265.423 967.324C-286.812 941.341 -306.441 911.642 -330.431 888.746C-347.14 872.809 -367.299 861.053 -385.509 846.966C-411.615 826.762 -437.377 806.118 -463.086 785.408C-484.671 768.015 -507.022 751.222 -525.724 730.307C-537.37 717.329 -543.374 703.86 -540.996 680.856C-538.93 660.844 -545.53 643.05 -549.619 626.121C-556.378 598.169 -564.178 571.065 -571.755 543.795C-587.613 486.694 -604.359 429.842 -613.163 367.052C-617.189 338.398 -627.452 294.68 -601.188 253.235C-591.719 238.29 -588.051 231.504 -589.063 218.03C-590.501 198.909 -598.767 184.36 -606.778 171.07C-625.451 140.088 -654.104 120.255 -672.825 89.4261C-680.41 76.821 -687.531 56.8133 -659.023 45.8721C-625.715 33.0501 -594.315 36.1896 -565.353 34.7928C-550.9 34.1008 -536.556 34.0846 -521.254 31.4149C-509.484 29.3412 -497.08 24.5934 -485.551 23.1215Z" stroke="#3A6247" stroke-width="0.5" />
        <path fill-rule="evenodd" clip-rule="evenodd" d="M-426.092 87.7923C-369.072 84.0353 -315.555 90.6865 -264.372 98.9693C-207.544 108.197 -152.68 121.905 -105.383 146.376C-72.7098 163.255 -41.1016 185.327 -26.1539 223.103C-16.7038 246.996 -21.771 277.838 -20.9104 307.678C-19.6429 352.753 -12.0561 393.59 19.3898 409.555C54.6338 427.467 88.8218 446.933 121.954 467.952C141.941 480.629 161.648 493.81 179.284 509.534C190.44 519.468 204.571 532.575 206.948 550.569C210.119 574.659 78.5801 636.844 60.4943 646.752C15.6398 671.324 -26.3953 701.018 -69.0754 741.493C-103.9 774.522 -115.558 812.715 -125.743 849.766C-132.061 872.781 -142.738 934.722 -167.757 951.524C-181.533 960.807 -194.339 949.808 -201.985 944.88C-216.551 935.481 -229.252 923.582 -242.446 912.432C-261.901 895.932 -287.872 885.085 -304.152 864.883C-340.241 820.127 -377.307 776.845 -416.224 735.134C-437.68 712.145 -459.563 689.397 -477.954 662.948C-484.555 653.451 -491.318 643.571 -494.783 631.011C-497.016 622.937 -494.662 613.978 -494.839 604.985C-495.715 562.148 -513.088 526.941 -524.034 491.406C-538.589 444.167 -553.585 397.143 -564.117 346.522C-569.655 319.895 -580.082 286.14 -569.197 249.063C-565.909 237.86 -559.096 232.153 -554.801 222.265C-549.841 210.864 -555.124 202.203 -557.897 195.794C-564.185 181.242 -603.078 136.375 -554.294 117.667C-531.04 108.77 -509.722 108.04 -487.992 103.733C-480.123 102.172 -472.337 100.505 -463.848 96.7416C-449.627 90.4211 -439.127 88.6726 -426.092 87.7923Z" stroke="#3A6247" stroke-width="0.5" />
        <path fill-rule="evenodd" clip-rule="evenodd" d="M-362.623 158.506C-258.463 161.723 -154.982 189.216 -87.7265 251.817C-65.3673 272.642 -45.0847 299.866 -43.3178 340.398C-42.2958 364.323 -45.1914 388.18 -34.505 404.849C-26.7888 416.88 -11.9892 421.551 -0.0705271 428.348C17.1951 438.19 34.2842 448.276 51.0888 458.752C71.8969 471.772 92.4169 485.288 111.082 501.117C124.416 512.431 143.978 526.59 145.03 549.858C146.299 577.622 48.744 627.327 32.7258 637.246C-6.09754 661.286 -40.3877 687.165 -75.3582 725.332C-85.5565 736.446 -98.1796 746.149 -107.121 758.39C-116.242 770.899 -120.754 784.845 -124.578 797.285C-129.6 813.582 -136.229 856.344 -153.005 867.932C-162.271 874.328 -173.023 867.677 -179.568 865.469C-191.861 861.347 -203.068 855.552 -214.876 850.691C-234.927 842.465 -262.961 844.667 -279.149 831.392C-322.696 795.714 -347.439 734.719 -379.81 686.606C-399.034 657.975 -419.048 629.994 -435.599 598.599C-440.833 588.662 -446.211 578.41 -449.058 566.249C-451.046 557.763 -448.472 547.398 -449.66 538.705C-454.193 505.34 -467.294 477.037 -477.983 448.638C-491.834 411.738 -506.158 375.259 -519.003 337.454C-527.056 313.76 -540.856 287.688 -539.369 256.518C-538.285 233.755 -527.734 234.903 -511.539 225.516C-503.278 220.733 -498.547 213.366 -491.149 206.427C-480.588 196.522 -469.32 192.241 -459 188.542C-444.753 183.422 -429.785 181.721 -414.916 173.426C-409.678 170.508 -405.538 165.049 -401.087 162.416C-388.13 154.742 -372.419 158.204 -362.623 158.506Z" stroke="#3A6247" stroke-width="0.5" />
        <path fill-rule="evenodd" clip-rule="evenodd" d="M-306.074 230.179C-228.418 241.578 -154.977 270.805 -104.423 323.092C-86.8362 341.288 -72.0361 363.288 -64.8188 391.933C-61.5191 404.945 -60.894 417.076 -52.0118 424.614C-31.3977 442.098 -7.5499 455.593 14.3542 471.421C30.0317 482.746 45.5132 494.478 58.9178 508.629C67.8841 518.087 80.1957 530.638 79.3107 548.889C77.9944 575.449 10.48 616.692 -6.58236 629.324C-34.8737 650.278 -65.4433 674.259 -86.7205 707.42C-93.2246 717.563 -98.175 727.142 -105.516 736.934C-111.804 745.364 -118.343 752.575 -122.986 761.698C-128.749 773.005 -132.118 794.887 -142.137 801.627C-148.974 806.234 -155.149 801.894 -160.652 800.789C-169.577 798.996 -179.134 798.32 -189.223 798.767C-199.868 799.266 -211.897 803.475 -222.027 802.848C-238.462 801.815 -250.991 793.172 -262.226 784.379C-307.046 749.287 -339.447 697.175 -369.541 645.631C-385.215 618.793 -400.543 591.255 -411.891 560.214C-415.334 550.785 -419.661 540.642 -419.511 528.296C-419.426 520.603 -417.196 512.616 -418.55 505.727C-430.125 446.898 -462.542 403.174 -483.061 351.225C-488.402 337.703 -520.23 265.611 -469.869 260.273C-439.271 257.027 -414.868 263.714 -380.95 253.096C-370.628 249.877 -362.865 246.605 -352.614 237.413C-345.804 231.285 -351.627 232.55 -341.622 228.389C-329.549 223.424 -315.123 228.853 -306.074 230.179Z" stroke="#3A6247" stroke-width="0.5" />
        <path fill-rule="evenodd" clip-rule="evenodd" d="M-264.906 291.856C-182.455 316.013 -114.83 366.722 -68.1113 438.518C-56.3292 456.611 -38.5057 468.344 -23.2843 482.455C-8.47998 496.147 21.9257 515.277 15.4343 547.226C10.7305 570.388 -26.0848 598.747 -43.8264 614.946C-66.4295 635.583 -89.1439 657.397 -100.657 685.561C-107.399 702.056 -112.21 719.007 -118.574 735.592C-121.611 743.515 -125.227 756.464 -131.661 761.2C-142.285 769.009 -158.671 763.028 -168.715 762.796C-200.812 762.052 -225.322 749.166 -246.946 732.173C-286.883 700.783 -319.087 659.098 -347.434 614.489C-360.474 593.963 -373.429 572.811 -382.095 548.024C-387.002 534.003 -384.7 516.105 -388.447 501.518C-400.499 454.531 -423.336 416.669 -437.478 371.277C-441.568 358.135 -458.817 311.561 -422.965 300.362C-388.256 289.524 -366.692 310.797 -332.428 301.855C-328.527 300.814 -323.781 299.628 -319.461 296.399C-316.886 294.462 -314.391 288.903 -312.8 287.898C-295.739 276.809 -275.368 288.785 -264.906 291.856Z" stroke="#3A6247" stroke-width="0.5" />
        <path fill-rule="evenodd" clip-rule="evenodd" d="M-235.227 339.744C-196.384 356.52 -161.752 380.129 -128.496 405.153C-110.318 418.831 -88.9048 432.02 -78.0567 454.257C-71.4034 467.93 -64.5999 480.655 -56.0842 492.635C-46.9227 505.527 -29.6949 523.123 -37.6179 548.203C-43.5399 566.942 -70.6366 593.854 -84.6553 611.336C-100.024 630.513 -109.161 646.493 -112.765 665.97C-115.042 678.229 -118.944 726.122 -128.508 733.367C-137.616 740.27 -153.218 730.277 -161.282 727.638C-186.79 719.324 -208.905 706.135 -228.835 690.002C-259.711 665.026 -286.447 634.527 -309.184 600.172C-318.567 585.946 -328.257 571.235 -333.704 553.159C-337.366 540.979 -336.155 525.378 -339.61 513.045C-349.485 477.699 -365.022 446.828 -374.732 411.105C-377.839 399.63 -390.594 365.595 -366.632 347.079C-346.631 331.614 -325.382 338.705 -307.077 332.154C-275.891 320.95 -256.569 330.518 -235.227 339.744Z" stroke="#3A6247" stroke-width="0.5" />
    </g>
    <defs>
        <clipPath id="clip0_4_11">
            <rect width="2264.27" height="1154.57" fill="white" transform="matrix(0.999867 -0.0163293 0.0208645 0.999782 -337.913 -18.8043)" />
        </clipPath>
    </defs>
</svg>
    